<?xml version="1.0" encoding="UTF-8"?>
<svg version="1.1" xmlns="http://www.w3.org/2000/svg" width="102" height="102">
<path d="M0 0 C33.66 0 67.32 0 102 0 C102 33.66 102 67.32 102 102 C68.34 102 34.68 102 0 102 C0 68.34 0 34.68 0 0 Z " fill="#F4CD21" transform="translate(0,0)"/>
<path d="M0 0 C1.18488007 -0.00945648 2.36976013 -0.01891296 3.59054565 -0.02865601 C4.87180328 -0.02258331 6.15306091 -0.01651062 7.47314453 -0.01025391 C9.44663376 -0.01455917 9.44663376 -0.01455917 11.45999146 -0.01895142 C14.24589596 -0.02337437 17.03151187 -0.01694714 19.81738281 -0.00292969 C23.38070708 0.01412943 26.94335181 0.00434244 30.50665092 -0.01364708 C33.91220247 -0.02712797 37.3175737 -0.01767254 40.72314453 -0.01025391 C42.0003537 -0.0163266 43.27756287 -0.02239929 44.59347534 -0.02865601 C45.78465973 -0.01919952 46.97584412 -0.00974304 48.203125 0 C49.77173782 0.00358017 49.77173782 0.00358017 51.37203979 0.00723267 C54.66985531 0.44666682 56.56132989 1.43308603 59.23095703 3.38818359 C60.55581808 6.0379057 60.38735796 8.07635191 60.42382812 11.04370117 C60.43989105 12.22865677 60.45595398 13.41361237 60.47250366 14.63447571 C60.51685666 20.05604591 60.55845793 25.47747035 60.58105469 30.89916992 C60.5943908 33.76179992 60.62223582 36.62371651 60.66308594 39.48608398 C60.72188068 43.60591682 60.73971383 47.72498437 60.75439453 51.84521484 C60.7770639 53.12556107 60.79973328 54.40590729 60.8230896 55.72505188 C60.79951947 65.60297591 60.79951947 65.60297591 57.88574219 68.67211914 C54.0935636 71.12339956 51.34013035 71.51773083 46.92089844 71.54931641 C45.83612213 71.55892395 44.75134583 71.56853149 43.63369751 71.57843018 C42.46180878 71.58268005 41.28992004 71.58692993 40.08251953 71.59130859 C38.87784027 71.59700867 37.67316101 71.60270874 36.43197632 71.60858154 C33.8815804 71.61803365 31.33117225 71.62456635 28.78076172 71.62841797 C24.87852705 71.63812744 20.97681813 71.66915138 17.07470703 71.70068359 C14.59814766 71.70721324 12.12158452 71.71246386 9.64501953 71.71630859 C8.47717926 71.7286554 7.30933899 71.7410022 6.10610962 71.75372314 C5.01502899 71.75072205 3.92394836 71.74772095 2.79980469 71.74462891 C1.84288727 71.74827454 0.88596985 71.75192017 -0.09994507 71.75567627 C-4.19401286 71.19198772 -6.71012704 69.47879683 -9.55827332 66.5453949 C-11.08633227 63.82287371 -11.14337708 61.98807287 -11.14135742 58.87280273 C-11.14758621 57.76808121 -11.153815 56.66335968 -11.16023254 55.52516174 C-11.1510228 54.33656052 -11.14181305 53.14795929 -11.13232422 51.92333984 C-11.13282272 50.69787949 -11.13332123 49.47241913 -11.13383484 48.20982361 C-11.13149438 45.61830016 -11.12176763 43.02677444 -11.10522461 40.43530273 C-11.08165492 36.46951952 -11.08466153 32.50440958 -11.09130859 28.53857422 C-11.08573103 26.02099209 -11.07862067 23.50341279 -11.06982422 20.98583984 C-11.07073563 19.79926285 -11.07164703 18.61268585 -11.07258606 17.39015198 C-11.06305405 16.28227829 -11.05352203 15.1744046 -11.04370117 14.03295898 C-11.03909378 13.06129288 -11.03448639 12.08962677 -11.02973938 11.08851624 C-10.67137055 7.37647796 -9.65543537 4.64177218 -7.50460815 1.59994507 C-4.98640914 -0.15824677 -3.05241051 0.00697738 0 0 Z " fill="#F9F8F4" transform="translate(25.76904296875,15.61181640625)"/>
<path d="M0 0 C5.445 0.495 5.445 0.495 11 1 C11 2.32 11 3.64 11 5 C9.35 5.33 7.7 5.66 6 6 C6.99 6.33 7.98 6.66 9 7 C9 7.66 9 8.32 9 9 C8.01 9.33 7.02 9.66 6 10 C8.475 10.99 8.475 10.99 11 12 C11 12.66 11 13.32 11 14 C9.35 14.33 7.7 14.66 6 15 C8.97 15.33 11.94 15.66 15 16 C15 16.99 15 17.98 15 19 C14.37351563 19.02578125 13.74703125 19.0515625 13.1015625 19.078125 C12.28429687 19.13484375 11.46703125 19.1915625 10.625 19.25 C9.81289062 19.29640625 9.00078125 19.3428125 8.1640625 19.390625 C7.44992188 19.59171875 6.73578125 19.7928125 6 20 C5.34 21.32 4.68 22.64 4 24 C-4.415 24.495 -4.415 24.495 -13 25 C-13 25.99 -13 26.98 -13 28 C-14.134375 28.12375 -15.26875 28.2475 -16.4375 28.375 C-18.2009375 28.684375 -18.2009375 28.684375 -20 29 C-20.33 29.66 -20.66 30.32 -21 31 C-18.69 31 -16.38 31 -14 31 C-14 31.66 -14 32.32 -14 33 C-17.63 33 -21.26 33 -25 33 C-27.25 28.5 -27.25 28.5 -27.1953125 24.890625 C-27.18886719 24.13652344 -27.18242187 23.38242187 -27.17578125 22.60546875 C-27.15902344 21.82816406 -27.14226563 21.05085938 -27.125 20.25 C-27.11597656 19.45722656 -27.10695313 18.66445313 -27.09765625 17.84765625 C-27.07417012 15.89830719 -27.03830137 13.94911425 -27 12 C-23.04 12 -19.08 12 -15 12 C-15.33 11.34 -15.66 10.68 -16 10 C-18.58605332 9.5316735 -18.58605332 9.5316735 -21.5625 9.375 C-22.57441406 9.30023438 -23.58632813 9.22546875 -24.62890625 9.1484375 C-25.80259766 9.07496094 -25.80259766 9.07496094 -27 9 C-27 8.34 -27 7.68 -27 7 C-26.14535156 6.93941406 -25.29070313 6.87882812 -24.41015625 6.81640625 C-23.30542969 6.73261719 -22.20070313 6.64882813 -21.0625 6.5625 C-19.96035156 6.48128906 -18.85820313 6.40007813 -17.72265625 6.31640625 C-15.08890097 6.29581916 -15.08890097 6.29581916 -14 5 C-18.29 4.67 -22.58 4.34 -27 4 C-27 3.01 -27 2.02 -27 1 C-19.41 1 -11.82 1 -4 1 C-3.67 1.99 -3.34 2.98 -3 4 C-4.98 4.99 -4.98 4.99 -7 6 C-6.67 6.99 -6.34 7.98 -6 9 C-8.31 9 -10.62 9 -13 9 C-13 9.66 -13 10.32 -13 11 C-12.28972656 11 -11.57945313 11 -10.84765625 11 C-7.8984375 11 -4.94921875 11 -2 11 C-2.66 10.34 -3.32 9.68 -4 9 C-4 8.01 -4 7.02 -4 6 C-1.69 6 0.62 6 3 6 C2.34 5.34 1.68 4.68 1 4 C0.34 4 -0.32 4 -1 4 C-0.67 2.68 -0.34 1.36 0 0 Z " fill="#BFBCD6" transform="translate(59,31)"/>
<path d="M0 0 C4.29 0 8.58 0 13 0 C13 0.66 13 1.32 13 2 C15.31 2 17.62 2 20 2 C20 2.33 20 2.66 20 3 C23.96 3.33 27.92 3.66 32 4 C32 4.33 32 4.66 32 5 C26.06 5 20.12 5 14 5 C14 5.66 14 6.32 14 7 C20.27 7 26.54 7 33 7 C32.34 8.65 31.68 10.3 31 12 C22.585 12.495 22.585 12.495 14 13 C14 13.99 14 14.98 14 16 C12.865625 16.12375 11.73125 16.2475 10.5625 16.375 C8.7990625 16.684375 8.7990625 16.684375 7 17 C6.67 17.66 6.34 18.32 6 19 C8.31 19 10.62 19 13 19 C13 19.66 13 20.32 13 21 C9.37 21 5.74 21 2 21 C-0.25 16.5 -0.25 16.5 -0.1953125 12.890625 C-0.18886719 12.13652344 -0.18242187 11.38242187 -0.17578125 10.60546875 C-0.15902344 9.82816406 -0.14226563 9.05085938 -0.125 8.25 C-0.11597656 7.45722656 -0.10695313 6.66445313 -0.09765625 5.84765625 C-0.07417012 3.89830719 -0.03830137 1.94911425 0 0 Z " fill="#FEF2FE" transform="translate(32,43)"/>
<path d="M0 0 C4.43728151 -0.11586755 8.87417591 -0.18714058 13.3125 -0.25 C14.57513672 -0.28351562 15.83777344 -0.31703125 17.13867188 -0.3515625 C18.95141602 -0.37089844 18.95141602 -0.37089844 20.80078125 -0.390625 C21.91622314 -0.41157227 23.03166504 -0.43251953 24.1809082 -0.45410156 C27 0 27 0 28.65490723 1.66149902 C30.34401558 4.59808571 30.36223443 6.49142873 30.34057617 9.87011719 C30.34023628 11.64150055 30.34023628 11.64150055 30.33988953 13.44866943 C30.32440567 14.71857727 30.30892181 15.98848511 30.29296875 17.296875 C30.28872391 18.60078186 30.28447906 19.90468872 30.28010559 21.24810791 C30.26867549 24.70718772 30.23922477 28.16588698 30.20599365 31.62481689 C30.1752528 35.15737765 30.16159172 38.69000016 30.14648438 42.22265625 C30.11435282 49.14859339 30.06317904 56.0742784 30 63 C29.67 63 29.34 63 29 63 C28.505 34.29 28.505 34.29 28 5 C27.01 5.33 26.02 5.66 25 6 C24.67 7.65 24.34 9.3 24 11 C22.68 11 21.36 11 20 11 C19.67 11.66 19.34 12.32 19 13 C19 12.34 19 11.68 19 11 C13.72 11 8.44 11 3 11 C3 10.34 3 9.68 3 9 C5.97 9 8.94 9 12 9 C12 8.01 12 7.02 12 6 C10.741875 6.185625 9.48375 6.37125 8.1875 6.5625 C2.70402149 7.19117906 -2.54148179 6.66318446 -8 6 C-7.67 5.34 -7.34 4.68 -7 4 C-5.68 4 -4.36 4 -3 4 C-2.67 3.34 -2.34 2.68 -2 2 C-1.34 2 -0.68 2 0 2 C0 1.34 0 0.68 0 0 Z " fill="#FDFCF0" transform="translate(56,17)"/>
<path d="M0 0 C7.59 0 15.18 0 23 0 C22.67 1.32 22.34 2.64 22 4 C22 5.32 22 6.64 22 8 C24.31 8.33 26.62 8.66 29 9 C29 9.99 29 10.98 29 12 C20.42 12 11.84 12 3 12 C2.67 9.03 2.34 6.06 2 3 C1.34 3 0.68 3 0 3 C0 2.01 0 1.02 0 0 Z " fill="#CF87BB" transform="translate(38,67)"/>
<path d="M0 0 C0.33 0 0.66 0 1 0 C1.65908708 14.52681727 2.26102458 29.02256866 1.6875 43.5625 C1.65277588 44.54734375 1.61805176 45.5321875 1.58227539 46.546875 C1.11041513 56.36849471 1.11041513 56.36849471 -1 59 C-8.91492961 62.13321598 -18.28954899 61.43621571 -26.6875 61.625 C-28.05666145 61.66332548 -29.42580257 61.70238468 -30.79492188 61.7421875 C-63.02704392 62.63322347 -63.02704392 62.63322347 -68 61 C-69.26171875 58.953125 -69.26171875 58.953125 -70 57 C-70.66 57 -71.32 57 -72 57 C-72.33 55.35 -72.66 53.7 -73 52 C-72.236875 52.804375 -71.47375 53.60875 -70.6875 54.4375 C-67.03332914 57.92170943 -64.56093641 58.12632187 -59.70581055 58.16113281 C-58.08348763 58.17554413 -58.08348763 58.17554413 -56.4283905 58.19024658 C-55.25963882 58.19449646 -54.09088715 58.19874634 -52.88671875 58.203125 C-51.08325737 58.21167511 -51.08325737 58.21167511 -49.24336243 58.22039795 C-46.69716269 58.22985075 -44.1509507 58.23638304 -41.60473633 58.24023438 C-37.71348667 58.24993522 -33.82276618 58.280955 -29.93164062 58.3125 C-27.45833647 58.31903055 -24.98502854 58.32428081 -22.51171875 58.328125 C-20.76770027 58.3466452 -20.76770027 58.3466452 -18.9884491 58.36553955 C-13.14543981 58.34946681 -9.10720701 58.14114224 -4 55 C-3.01 55 -2.02 55 -1 55 C-0.67 36.85 -0.34 18.7 0 0 Z " fill="#DDB632" transform="translate(88,28)"/>
<path d="M0 0 C11.03947749 0.03181406 22.06092487 0.60594357 33.0859375 1.1328125 C33.0859375 2.1228125 33.0859375 3.1128125 33.0859375 4.1328125 C30.1159375 4.1328125 27.1459375 4.1328125 24.0859375 4.1328125 C24.0859375 4.7928125 24.0859375 5.4528125 24.0859375 6.1328125 C29.0359375 6.1328125 33.9859375 6.1328125 39.0859375 6.1328125 C39.0859375 6.7928125 39.0859375 7.4528125 39.0859375 8.1328125 C32.4859375 8.1328125 25.8859375 8.1328125 19.0859375 8.1328125 C19.4159375 7.1428125 19.7459375 6.1528125 20.0859375 5.1328125 C17.21142767 4.88232614 17.21142767 4.88232614 14.0859375 5.1328125 C13.6734375 5.6278125 13.2609375 6.1228125 12.8359375 6.6328125 C10.06823979 9.00512482 7.44892716 8.4180324 3.8984375 8.3203125 C2.62613281 8.29324219 1.35382812 8.26617187 0.04296875 8.23828125 C-0.93285156 8.20347656 -1.90867188 8.16867188 -2.9140625 8.1328125 C-2.95647973 5.79986475 -2.95499187 3.46578683 -2.9140625 1.1328125 C-1.9140625 0.1328125 -1.9140625 0.1328125 0 0 Z " fill="#BF72AC" transform="translate(34.9140625,21.8671875)"/>
<path d="M0 0 C20.13 0 40.26 0 61 0 C64.37527952 6.75055905 64.37527952 6.75055905 64.35644531 12.15722656 C64.35944641 13.35156311 64.36244751 14.54589966 64.36553955 15.77642822 C64.34701935 17.68920563 64.34701935 17.68920563 64.328125 19.640625 C64.32625183 20.95915466 64.32437866 22.27768433 64.32244873 23.63616943 C64.31786244 26.4167521 64.30349662 29.19704244 64.28125 31.97753906 C64.25285853 35.54424299 64.24202557 39.11071834 64.2375679 42.67752457 C64.23242003 46.08192671 64.21788513 49.48625006 64.203125 52.890625 C64.19887512 54.17390686 64.19462524 55.45718872 64.19024658 56.77935791 C64.18063904 57.96108582 64.17103149 59.14281372 64.16113281 60.36035156 C64.15430481 61.40370667 64.14747681 62.44706177 64.14044189 63.52203369 C64 66 64 66 63 68 C62.34 68 61.68 68 61 68 C61.00666183 66.84488167 61.00666183 66.84488167 61.01345825 65.66642761 C61.05351759 58.41231044 61.0839755 51.15824684 61.10362434 43.90404797 C61.11406556 40.1745094 61.12823083 36.44506217 61.15087891 32.71557617 C61.17259539 29.11701369 61.18456608 25.5185391 61.18975449 21.91991615 C61.1934524 20.54637582 61.20067345 19.17284034 61.21146011 17.79933739 C61.22595829 15.87693338 61.22681678 13.95444109 61.22705078 12.03198242 C61.23371262 10.38984016 61.23371262 10.38984016 61.24050903 8.71452332 C61.19890615 5.77933095 61.19890615 5.77933095 59 3 C55.92781664 1.97593888 53.73987825 1.8453464 50.51879883 1.79467773 C49.39786331 1.77473251 48.2769278 1.75478729 47.12202454 1.73423767 C45.30785286 1.70916893 45.30785286 1.70916893 43.45703125 1.68359375 C42.21829758 1.66281265 40.9795639 1.64203156 39.70329285 1.62062073 C36.41374744 1.56628203 33.12417274 1.51604049 29.83453369 1.46777344 C26.47622186 1.41749354 23.11799954 1.36184139 19.75976562 1.30664062 C13.17324841 1.19946952 6.58666416 1.09769865 0 1 C0 0.67 0 0.34 0 0 Z " fill="#ECD368" transform="translate(24,15)"/>
<path d="M0 0 C1.22589844 0.01353516 1.22589844 0.01353516 2.4765625 0.02734375 C3.41628906 0.04474609 3.41628906 0.04474609 4.375 0.0625 C3.055 1.3825 1.735 2.7025 0.375 4.0625 C6.975 4.0625 13.575 4.0625 20.375 4.0625 C20.705 3.4025 21.035 2.7425 21.375 2.0625 C21.87 3.5475 21.87 3.5475 22.375 5.0625 C21.75625 5.35125 21.1375 5.64 20.5 5.9375 C18.24174235 6.99970042 18.24174235 6.99970042 16.375 9.0625 C16.375 8.0725 16.375 7.0825 16.375 6.0625 C12.745 6.0625 9.115 6.0625 5.375 6.0625 C5.045 7.0525 4.715 8.0425 4.375 9.0625 C5.365 8.7325 6.355 8.4025 7.375 8.0625 C7.705 9.0525 8.035 10.0425 8.375 11.0625 C6.065 11.0625 3.755 11.0625 1.375 11.0625 C1.375 12.0525 1.375 13.0425 1.375 14.0625 C2.365 14.3925 3.355 14.7225 4.375 15.0625 C4.045 16.3825 3.715 17.7025 3.375 19.0625 C3.045 18.0725 2.715 17.0825 2.375 16.0625 C-0.925 16.0625 -4.225 16.0625 -7.625 16.0625 C-7.625 15.4025 -7.625 14.7425 -7.625 14.0625 C-5.315 14.0625 -3.005 14.0625 -0.625 14.0625 C-0.955 13.4025 -1.285 12.7425 -1.625 12.0625 C-4.15233235 11.40694881 -4.15233235 11.40694881 -6.625 11.0625 C-6.625 10.7325 -6.625 10.4025 -6.625 10.0625 C-2.17 9.5675 -2.17 9.5675 2.375 9.0625 C2.045 8.4025 1.715 7.7425 1.375 7.0625 C-6.545 6.7325 -14.465 6.4025 -22.625 6.0625 C-22.295 4.7425 -21.965 3.4225 -21.625 2.0625 C-21.625 2.7225 -21.625 3.3825 -21.625 4.0625 C-17.005 4.0625 -12.385 4.0625 -7.625 4.0625 C-7.295 3.0725 -6.965 2.0825 -6.625 1.0625 C-4.21954362 -0.14022819 -2.67503047 -0.03821472 0 0 Z " fill="#F8ECFC" transform="translate(53.625,25.9375)"/>
<path d="M0 0 C10.23 0 20.46 0 31 0 C31 0.99 31 1.98 31 3 C22.585 3.495 22.585 3.495 14 4 C14 4.99 14 5.98 14 7 C12.865625 7.12375 11.73125 7.2475 10.5625 7.375 C8.7990625 7.684375 8.7990625 7.684375 7 8 C6.67 8.66 6.34 9.32 6 10 C8.31 10 10.62 10 13 10 C13 10.66 13 11.32 13 12 C9.37 12 5.74 12 2 12 C0 8 0 8 0 0 Z " fill="#F7ECF9" transform="translate(32,52)"/>
<path d="M0 0 C7.59 0 15.18 0 23 0 C23.33 0.99 23.66 1.98 24 3 C22.02 3.99 22.02 3.99 20 5 C20.33 5.99 20.66 6.98 21 8 C18.69 8 16.38 8 14 8 C14 8.66 14 9.32 14 10 C17.3 10 20.6 10 24 10 C24 10.99 24 11.98 24 13 C20.37 13 16.74 13 13 13 C12.34 11.68 11.68 10.36 11 9 C8.35212912 8.29626983 8.35212912 8.29626983 5.375 8.25 C3.87066406 8.16492188 3.87066406 8.16492188 2.3359375 8.078125 C1.56507812 8.05234375 0.79421875 8.0265625 0 8 C0 7.34 0 6.68 0 6 C0.85464844 5.93941406 1.70929687 5.87882812 2.58984375 5.81640625 C3.69457031 5.73261719 4.79929687 5.64882813 5.9375 5.5625 C7.03964844 5.48128906 8.14179687 5.40007813 9.27734375 5.31640625 C11.91109903 5.29581916 11.91109903 5.29581916 13 4 C8.71 3.67 4.42 3.34 0 3 C0 2.01 0 1.02 0 0 Z " fill="#898CBC" transform="translate(32,32)"/>
<path d="M0 0 C1.20101852 0.00022659 2.40203705 0.00045319 3.63945007 0.00068665 C4.93639297 0.0161705 6.23333588 0.03165436 7.56958008 0.04760742 C8.91050238 0.05320383 10.25143082 0.05747372 11.59236145 0.06047058 C15.11885563 0.07191599 18.64497817 0.10137999 22.17132568 0.13458252 C25.77082288 0.16529028 29.37038023 0.17897739 32.9699707 0.1940918 C40.03066947 0.22625039 47.09111611 0.27744273 54.15161133 0.34057617 C54.15161133 0.67057617 54.15161133 1.00057617 54.15161133 1.34057617 C53.09045357 1.35270645 53.09045357 1.35270645 52.00785828 1.36508179 C45.34222551 1.44300955 38.67678875 1.53029455 32.01141644 1.62810326 C28.58463785 1.67805789 25.15788997 1.72438775 21.73095703 1.76245117 C17.7915705 1.80636505 13.85249825 1.86601346 9.91333008 1.92651367 C8.06634773 1.94384048 8.06634773 1.94384048 6.18205261 1.96151733 C5.04109634 1.98138702 3.90014008 2.00125671 2.72460938 2.02172852 C1.71867233 2.03505219 0.71273529 2.04837585 -0.32368469 2.06210327 C-3.09345476 2.17163372 -3.09345476 2.17163372 -5.84838867 4.34057617 C-6.17838867 5.33057617 -6.50838867 6.32057617 -6.84838867 7.34057617 C-7.50838867 7.34057617 -8.16838867 7.34057617 -8.84838867 7.34057617 C-9.17838867 26.15057617 -9.50838867 44.96057617 -9.84838867 64.34057617 C-10.17838867 64.34057617 -10.50838867 64.34057617 -10.84838867 64.34057617 C-10.89909793 56.45689643 -10.93412622 48.57325875 -10.95825195 40.68945312 C-10.96717982 38.00743971 -10.98109585 35.32552102 -10.99926758 32.64355469 C-11.02352586 28.78862807 -11.03487426 24.93384644 -11.04370117 21.07885742 C-11.05402374 19.87973221 -11.06434631 18.68060699 -11.07498169 17.44514465 C-11.07513275 16.3243602 -11.07528381 15.20357574 -11.07543945 14.04882812 C-11.07988068 13.0650972 -11.0843219 12.08136627 -11.08889771 11.06782532 C-10.75942643 7.33178997 -9.74242688 4.61206853 -7.58891296 1.54936218 C-5.04342628 -0.21846646 -3.07823144 -0.01935995 0 0 Z " fill="#F9F0AF" transform="translate(25.848388671875,15.659423828125)"/>
<path d="M0 0 C0 0.66 0 1.32 0 2 C-18.48 2 -36.96 2 -56 2 C-56 1.34 -56 0.68 -56 0 C-37.24567506 -0.88321971 -18.73869602 -1.39543481 0 0 Z " fill="#F1D538" transform="translate(80,13)"/>
<path d="M0 0 C0.99 0.33 1.98 0.66 3 1 C2.01 2.485 2.01 2.485 1 4 C7.27 4 13.54 4 20 4 C20 4.33 20 4.66 20 5 C22.31 5.33 24.62 5.66 27 6 C27 6.99 27 7.98 27 9 C18.42 9 9.84 9 1 9 C0.67 6.03 0.34 3.06 0 0 Z " fill="#DFA2CE" transform="translate(40,70)"/>
<path d="M0 0 C1.65322266 0.01740234 1.65322266 0.01740234 3.33984375 0.03515625 C4.99693359 0.04869141 4.99693359 0.04869141 6.6875 0.0625 C7.54214844 0.07410156 8.39679687 0.08570312 9.27734375 0.09765625 C9.38046875 0.73703125 9.48359375 1.37640625 9.58984375 2.03515625 C9.93015625 3.05609375 9.93015625 3.05609375 10.27734375 4.09765625 C11.26734375 4.42765625 12.25734375 4.75765625 13.27734375 5.09765625 C12.2265625 6.5859375 12.2265625 6.5859375 10.27734375 8.09765625 C6.921875 8.390625 6.921875 8.390625 3.08984375 8.28515625 C1.81753906 8.25808594 0.54523437 8.23101562 -0.765625 8.203125 C-1.74144531 8.16832031 -2.71726563 8.13351563 -3.72265625 8.09765625 C-3.76507348 5.7647085 -3.76358562 3.43063058 -3.72265625 1.09765625 C-2.72265625 0.09765625 -2.72265625 0.09765625 0 0 Z " fill="#CE91D1" transform="translate(35.72265625,21.90234375)"/>
<path d="M0 0 C0.33 0.33 0.66 0.66 1 1 C2.51469448 1.23192865 4.03754562 1.41215238 5.5625 1.5625 C6.80193359 1.68818359 6.80193359 1.68818359 8.06640625 1.81640625 C8.70449219 1.87699219 9.34257813 1.93757813 10 2 C10 2.99 10 3.98 10 5 C0.76 5 -8.48 5 -18 5 C-18 4.34 -18 3.68 -18 3 C-11.12623856 -0.59310257 -7.58205223 -1.24295938 0 0 Z " fill="#E0A6D1" transform="translate(64,45)"/>
<path d="M0 0 C3.63 0 7.26 0 11 0 C11 0.99 11 1.98 11 3 C13.475 3.495 13.475 3.495 16 4 C16 4.33 16 4.66 16 5 C8.41 5 0.82 5 -7 5 C-7.33 5.66 -7.66 6.32 -8 7 C-8.33 5.35 -8.66 3.7 -9 2 C-6.03 2 -3.06 2 0 2 C0 1.34 0 0.68 0 0 Z " fill="#D7BEEB" transform="translate(45,62)"/>
<path d="M0 0 C3.96 0 7.92 0 12 0 C12 2.33333333 12 4.66666667 12 7 C8.04 7 4.08 7 0 7 C0 4.69 0 2.38 0 0 Z " fill="#C584C1" transform="translate(32,43)"/>
<path d="M0 0 C1.65 0 3.3 0 5 0 C5 4 5 4 4.4375 6.0625 C3.77922612 8.20004394 3.77922612 8.20004394 5 11 C3.35 11 1.7 11 0 11 C-1.85776765 7.86501708 -2.20140476 5.62528568 -2 2 C-1.34 2 -0.68 2 0 2 C0 1.34 0 0.68 0 0 Z " fill="#CDCECF" transform="translate(22,48)"/>
<path d="M0 0 C2.31 0 4.62 0 7 0 C6.67 1.65 6.34 3.3 6 5 C8.31 5 10.62 5 13 5 C13 5.66 13 6.32 13 7 C9.37 7 5.74 7 2 7 C0 3 0 3 0 0 Z " fill="#B379C8" transform="translate(32,57)"/>
<path d="M0 0 C1.11375 1.175625 1.11375 1.175625 2.25 2.375 C6.05441148 6.00648369 8.7779515 7.18836171 13.984375 7.6328125 C14.91894531 7.71660156 15.85351562 7.80039063 16.81640625 7.88671875 C17.78449219 7.96535156 18.75257812 8.04398438 19.75 8.125 C20.73355469 8.21136719 21.71710937 8.29773438 22.73046875 8.38671875 C25.15311603 8.59840638 27.57615667 8.80256279 30 9 C30 9.33 30 9.66 30 10 C15.83820253 10.16994157 15.83820253 10.16994157 9.1875 9.75 C8.41792969 9.70359375 7.64835937 9.6571875 6.85546875 9.609375 C5 9 5 9 3.73828125 6.953125 C3.49464844 6.30859375 3.25101563 5.6640625 3 5 C2.34 5 1.68 5 1 5 C0.67 3.35 0.34 1.7 0 0 Z " fill="#DEB931" transform="translate(15,80)"/>
<path d="M0 0 C5.61 0 11.22 0 17 0 C17 0.99 17 1.98 17 3 C11.39 3 5.78 3 0 3 C0 2.01 0 1.02 0 0 Z " fill="#86868D" transform="translate(46,52)"/>
<path d="M0 0 C0.33 0.66 0.66 1.32 1 2 C3.31 2 5.62 2 8 2 C8 2.33 8 2.66 8 3 C11.96 3.33 15.92 3.66 20 4 C20 4.33 20 4.66 20 5 C14.06 5 8.12 5 2 5 C2 5.66 2 6.32 2 7 C1.34 7 0.68 7 0 7 C0 6.01 0 5.02 0 4 C-1.65 4 -3.3 4 -5 4 C-4.360625 3.71125 -3.72125 3.4225 -3.0625 3.125 C-0.84793921 2.17176549 -0.84793921 2.17176549 0 0 Z " fill="#F2CFEC" transform="translate(44,43)"/>
<path d="M0 0 C2.64 0 5.28 0 8 0 C8 2.64 8 5.28 8 8 C6.68 8 5.36 8 4 8 C3.67 5.69 3.34 3.38 3 1 C2.01 0.67 1.02 0.34 0 0 Z " fill="#C2C3C5" transform="translate(19,66)"/>
<path d="M0 0 C3.96 0 7.92 0 12 0 C12 0.99 12 1.98 12 3 C7.71 3 3.42 3 -1 3 C-0.67 2.01 -0.34 1.02 0 0 Z " fill="#87868D" transform="translate(66,52)"/>
<path d="M0 0 C3.96 0 7.92 0 12 0 C12 0.99 12 1.98 12 3 C8.04 3 4.08 3 0 3 C0 2.01 0 1.02 0 0 Z " fill="#88858F" transform="translate(32,52)"/>
<path d="M0 0 C2.475 0.99 2.475 0.99 5 2 C3.68 2.33 2.36 2.66 1 3 C1 3.66 1 4.32 1 5 C1.66 5.33 2.32 5.66 3 6 C-1.29 6 -5.58 6 -10 6 C-10 5.34 -10 4.68 -10 4 C-7.03 4 -4.06 4 -1 4 C-0.67 2.68 -0.34 1.36 0 0 Z " fill="#FADCF5" transform="translate(69,22)"/>
<path d="M0 0 C0 0.99 0 1.98 0 3 C-2.97 3 -5.94 3 -9 3 C-9 3.66 -9 4.32 -9 5 C-10.32 4.67 -11.64 4.34 -13 4 C-13 3.34 -13 2.68 -13 2 C-8.49646738 0.24252386 -4.82360189 -0.19294408 0 0 Z " fill="#CA96D4" transform="translate(68,23)"/>
<path d="M0 0 C0 0.66 0 1.32 0 2 C-5.37817807 2.81180046 -9.68180053 3.14988097 -15 2 C-15 1.67 -15 1.34 -15 1 C-12.87630763 0.63807496 -10.7509887 0.28568253 -8.625 -0.0625 C-6.84996094 -0.35833984 -6.84996094 -0.35833984 -5.0390625 -0.66015625 C-2 -1 -2 -1 0 0 Z " fill="#FAFCFE" transform="translate(62,35)"/>
<path d="M0 0 C1.21816406 0.03480469 1.21816406 0.03480469 2.4609375 0.0703125 C3.68683594 0.09738281 3.68683594 0.09738281 4.9375 0.125 C5.87722656 0.15980469 5.87722656 0.15980469 6.8359375 0.1953125 C5.8459375 0.8553125 4.8559375 1.5153125 3.8359375 2.1953125 C3.5059375 3.1853125 3.1759375 4.1753125 2.8359375 5.1953125 C0.5259375 5.1953125 -1.7840625 5.1953125 -4.1640625 5.1953125 C-4.1640625 4.8653125 -4.1640625 4.5353125 -4.1640625 4.1953125 C-2.5140625 4.1953125 -0.8640625 4.1953125 0.8359375 4.1953125 C0.8359375 3.5353125 0.8359375 2.8753125 0.8359375 2.1953125 C-0.8140625 2.1953125 -2.4640625 2.1953125 -4.1640625 2.1953125 C-2.1640625 0.1953125 -2.1640625 0.1953125 0 0 Z " fill="#FEF2FE" transform="translate(51.1640625,25.8046875)"/>
<path d="M0 0 C2.97 0 5.94 0 9 0 C9 0.99 9 1.98 9 3 C6.03 3 3.06 3 0 3 C0 2.01 0 1.02 0 0 Z " fill="#8A8790" transform="translate(65,47)"/>
<path d="M0 0 C12.66970387 -0.18451025 12.66970387 -0.18451025 18 1 C18 1.33 18 1.66 18 2 C11.46837378 3.10914408 5.56492112 2.78441153 -1 2 C-0.67 1.34 -0.34 0.68 0 0 Z " fill="#FDEBFE" transform="translate(49,21)"/>
<path d="M0 0 C2.31 0 4.62 0 7 0 C6.01 1.485 6.01 1.485 5 3 C2.1796875 3.29296875 2.1796875 3.29296875 -1.125 3.1875 C-2.76855469 3.14689453 -2.76855469 3.14689453 -4.4453125 3.10546875 C-5.28835937 3.07066406 -6.13140625 3.03585938 -7 3 C-7 2.67 -7 2.34 -7 2 C-3.535 1.505 -3.535 1.505 0 1 C0 0.67 0 0.34 0 0 Z " fill="#E3E9EE" transform="translate(39,35)"/>
<path d="M0 0 C0 0.66 0 1.32 0 2 C-3.96 2 -7.92 2 -12 2 C-7.93192322 -0.71205119 -4.69252613 -1.56417538 0 0 Z " fill="#E6C4F7" transform="translate(44,41)"/>
<path d="M0 0 C0.66 0.33 1.32 0.66 2 1 C1.01 2.98 0.02 4.96 -1 7 C-1.66 7 -2.32 7 -3 7 C-3.33 8.32 -3.66 9.64 -4 11 C-4.49230769 4.6 -4.49230769 4.6 -2 1.5625 C-1.34 1.046875 -0.68 0.53125 0 0 Z " fill="#FEF6BE" transform="translate(20,16)"/>
<path d="M0 0 C1.98 0 3.96 0 6 0 C6 0.99 6 1.98 6 3 C3.69 3 1.38 3 -1 3 C-0.67 2.01 -0.34 1.02 0 0 Z " fill="#C47CA9" transform="translate(64,32)"/>
<path d="M0 0 C1.66611905 -0.042721 3.33382885 -0.04063832 5 0 C6 1 6 1 6.0625 3.5625 C6.041875 4.366875 6.02125 5.17125 6 6 C5.566875 5.525625 5.13375 5.05125 4.6875 4.5625 C2.97690387 2.76313043 2.97690387 2.76313043 0 2 C0 1.34 0 0.68 0 0 Z " fill="#EED74E" transform="translate(80,15)"/>
</svg>
