<?xml version="1.0" encoding="UTF-8"?>
<svg version="1.1" xmlns="http://www.w3.org/2000/svg" width="100" height="100">
<path d="M0 0 C33 0 66 0 100 0 C100 33 100 66 100 100 C67 100 34 100 0 100 C0 67 0 34 0 0 Z " fill="#B8C5E4" transform="translate(0,0)"/>
<path d="M0 0 C1.02141083 -0.0127597 2.04282166 -0.02551941 3.09518433 -0.03866577 C4.74213791 -0.04200424 4.74213791 -0.04200424 6.42236328 -0.04541016 C7.55666779 -0.05206696 8.69097229 -0.05872375 9.85964966 -0.06558228 C12.25863016 -0.07570525 14.65763879 -0.08039941 17.05664062 -0.08007812 C20.72199043 -0.08444799 24.38613301 -0.12076431 28.05126953 -0.15869141 C30.38329667 -0.16456028 32.71532952 -0.1685292 35.04736328 -0.17041016 C36.14128387 -0.18478119 37.23520447 -0.19915222 38.36227417 -0.21395874 C44.50233841 -0.17719621 48.23976212 0.1039085 52.86767578 4.29052734 C55.02994691 7.53393403 55.12575699 8.46691433 55.15820312 12.2175293 C55.17096283 13.2189949 55.18372253 14.22046051 55.1968689 15.25227356 C55.19909454 16.33353012 55.20132019 17.41478668 55.20361328 18.52880859 C55.21359848 20.1990937 55.21359848 20.1990937 55.2237854 21.90312195 C55.23391749 24.26100003 55.23860225 26.61890681 55.23828125 28.97680664 C55.24264619 32.57860859 55.27893901 36.17917732 55.31689453 39.78076172 C55.32276422 42.07177315 55.32673259 44.36279041 55.32861328 46.65380859 C55.34298431 47.72899246 55.35735535 48.80417633 55.37216187 49.91194153 C55.33517333 55.98880715 55.07457303 59.74931632 50.86767578 64.29052734 C47.76360781 66.22274114 45.36345364 66.55021242 41.73535156 66.58105469 C40.71394073 66.59381439 39.69252991 66.6065741 38.64016724 66.61972046 C36.99321365 66.62305893 36.99321365 66.62305893 35.31298828 66.62646484 C33.61153152 66.63645004 33.61153152 66.63645004 31.8757019 66.64663696 C29.47672141 66.65675994 27.07771277 66.66145409 24.67871094 66.66113281 C21.01336113 66.66550268 17.34921856 66.701819 13.68408203 66.73974609 C11.35205489 66.74561497 9.02002204 66.74958389 6.68798828 66.75146484 C5.04710739 66.77302139 5.04710739 66.77302139 3.37307739 66.79501343 C-2.74102688 66.75840633 -6.56960433 66.53767544 -11.13232422 62.29052734 C-13.01882307 59.23883803 -13.39132137 56.90387556 -13.42285156 53.34179688 C-13.43561127 52.36042755 -13.44837097 51.37905823 -13.46151733 50.36795044 C-13.46374298 49.31372894 -13.46596863 48.25950745 -13.46826172 47.17333984 C-13.47491852 46.08342743 -13.48157532 44.99351501 -13.48843384 43.87057495 C-13.49855546 41.56575202 -13.50325101 39.26089982 -13.50292969 36.95605469 C-13.50729938 33.43554208 -13.54361623 29.91628664 -13.58154297 26.39599609 C-13.58741193 24.15511496 -13.59138079 21.91422788 -13.59326172 19.67333984 C-13.60763275 18.62316681 -13.62200378 17.57299377 -13.6368103 16.49099731 C-13.59928559 10.46781954 -13.28261626 6.80028632 -9.13232422 2.29052734 C-6.0291214 0.35715917 -3.62773464 0.03083915 0 0 Z " fill="#030B1C" transform="translate(29.13232421875,16.70947265625)"/>
<path d="M0 0 C4.07651629 1.9793369 5.19262247 6.54526844 6.72119141 10.55175781 C7.08921875 11.4425 7.45724609 12.33324219 7.83642578 13.25097656 C8.55440733 14.9951965 9.25862739 16.74515614 9.94775391 18.50097656 C10.80248485 20.65865101 11.7082757 22.78124236 12.64697266 24.90332031 C13.90791667 27.92490133 14.4452769 29.70724487 13.90869141 32.92675781 C12.72119141 34.80175781 12.72119141 34.80175781 10.90869141 35.92675781 C8.40869141 35.92675781 8.40869141 35.92675781 5.90869141 34.92675781 C3.40915687 31.24781824 1.58266441 27.2701512 -0.27880859 23.23925781 C-1.07351562 21.53189453 -1.07351562 21.53189453 -1.88427734 19.79003906 C-3.09130859 16.92675781 -3.09130859 16.92675781 -3.09130859 14.92675781 C-3.75130859 14.92675781 -4.41130859 14.92675781 -5.09130859 14.92675781 C-6.08130859 18.55675781 -7.07130859 22.18675781 -8.09130859 25.92675781 C-6.44130859 25.92675781 -4.79130859 25.92675781 -3.09130859 25.92675781 C-1.09130859 27.92675781 -1.09130859 27.92675781 -0.77880859 30.36425781 C-1.09130859 32.92675781 -1.09130859 32.92675781 -2.14208984 34.56347656 C-5.10245993 36.63395584 -8.11295061 36.36138681 -11.59130859 36.30175781 C-12.26806641 36.31335938 -12.94482422 36.32496094 -13.64208984 36.33691406 C-16.43815262 36.32036931 -18.63518854 36.17060661 -21.12255859 34.84082031 C-22.69973322 31.72462851 -22.00596078 29.14094307 -21.09130859 25.92675781 C-19.6713609 21.93515947 -18.03157144 18.06045424 -16.34130859 14.17675781 C-15.91076172 13.13648438 -15.48021484 12.09621094 -15.03662109 11.02441406 C-14.60607422 10.02796875 -14.17552734 9.03152344 -13.73193359 8.00488281 C-13.15233887 6.64991699 -13.15233887 6.64991699 -12.56103516 5.26757812 C-9.53795801 0.45275027 -5.4033516 -0.94136813 0 0 Z " fill="#F72707" transform="translate(54.09130859375,31.0732421875)"/>
<path d="M0 0 C4.22776361 1.93958711 6.08130549 3.62537653 8 8 C7.43649004 11.82870786 6.31819906 15.36849084 5 19 C5.78375 18.95875 6.5675 18.9175 7.375 18.875 C10 19 10 19 12 21 C12.34577375 23.69703524 12.43860534 25.3168192 10.94921875 27.63671875 C7.98884867 29.70719803 4.97835799 29.43462899 1.5 29.375 C0.82324219 29.38660156 0.14648438 29.39820312 -0.55078125 29.41015625 C-3.34684403 29.3936115 -5.54387994 29.2438488 -8.03125 27.9140625 C-9.59268168 24.82897571 -8.89344683 22.18660206 -8 19 C-6.78544113 15.62325939 -5.38320641 12.34592649 -3.9375 9.0625 C-3.37192383 7.75055664 -3.37192383 7.75055664 -2.79492188 6.41210938 C-1.87077032 4.27135324 -0.9390249 2.13426353 0 0 Z " fill="#8771F0" transform="translate(41,38)"/>
<path d="M0 0 C2.75 -0.0625 2.75 -0.0625 6 1 C8.47773251 4.64151597 9.77834407 8.54340386 10.4375 12.875 C10 15 10 15 8.8125 16.875 C7 18 7 18 4.5 18 C1.09277125 16.6371085 0.49039264 15.33564066 -1 12 C-1.78669116 9.34491733 -2.40323496 6.70839518 -3 4 C-2.01 4 -1.02 4 0 4 C0 2.68 0 1.36 0 0 Z " fill="#F1DD1E" transform="translate(58,49)"/>
<path d="M0 0 C4.23425445 1.51223373 6.05018292 4.02537288 8 8 C7.25 11.875 7.25 11.875 6 15 C4.68 15 3.36 15 2 15 C2 15.66 2 16.32 2 17 C-0.31 17.33 -2.62 17.66 -5 18 C-4.0122936 11.57409836 -2.86390108 5.85797948 0 0 Z " fill="#DE58F6" transform="translate(41,38)"/>
<path d="M0 0 C2.375 -0.125 2.375 -0.125 5 0 C7 2 7 2 7.3125 4.4375 C7 7 7 7 5.9609375 8.6484375 C2.9450729 10.72710115 -0.16673697 10.31570706 -3.6875 10.1875 C-4.7403418 10.16719727 -4.7403418 10.16719727 -5.81445312 10.14648438 C-7.54329829 10.11120182 -9.27174765 10.05739583 -11 10 C-11 9.67 -11 9.34 -11 9 C-10.0925 8.938125 -9.185 8.87625 -8.25 8.8125 C-4.21305677 7.80326419 -3.21343236 6.443117 -1 3 C-0.67 2.01 -0.34 1.02 0 0 Z " fill="#447ADF" transform="translate(46,57)"/>
<path d="M0 0 C0.66 2.31 1.32 4.62 2 7 C0.35 6.67 -1.3 6.34 -3 6 C-3 7.32 -3 8.64 -3 10 C-3.99 10.495 -3.99 10.495 -5 11 C-5.33 11.99 -5.66 12.98 -6 14 C-7.88773529 10.22452942 -9.01764214 7.9350336 -8.9375 3.6875 C-8 1 -8 1 -6.1875 -0.4375 C-3.71350578 -1.07366994 -2.38111068 -0.85039667 0 0 Z " fill="#E9B51A" transform="translate(61,43)"/>
<path d="M0 0 C2.50037734 2.17424117 3.43628586 3.73045798 4 7 C2.88625 7.2475 1.7725 7.495 0.625 7.75 C-3.04615198 8.61005339 -3.04615198 8.61005339 -4.4375 11.125 C-4.623125 11.74375 -4.80875 12.3625 -5 13 C-5 12.34 -5 11.68 -5 11 C-5.61875 10.938125 -6.2375 10.87625 -6.875 10.8125 C-9 10 -9 10 -10.25 7.4375 C-10.4975 6.633125 -10.745 5.82875 -11 5 C-8.03 5 -5.06 5 -2 5 C-2 4.34 -2 3.68 -2 3 C-1.34 3 -0.68 3 0 3 C0 2.01 0 1.02 0 0 Z " fill="#ED5712" transform="translate(56,35)"/>
<path d="M0 0 C-0.33 0.99 -0.66 1.98 -1 3 C-18.82 3 -36.64 3 -55 3 C-55 2.67 -55 2.34 -55 2 C-54.04826401 1.9845388 -54.04826401 1.9845388 -53.07730103 1.96876526 C-46.49153038 1.86083865 -39.90590041 1.74622965 -33.3203125 1.62768555 C-30.86038141 1.58429221 -28.40041935 1.54262044 -25.94042969 1.50268555 C-22.41071216 1.44508943 -18.88115124 1.38136443 -15.3515625 1.31640625 C-14.24632233 1.29969376 -13.14108215 1.28298126 -12.00234985 1.26576233 C-10.98144257 1.24581711 -9.96053528 1.22587189 -8.90869141 1.20532227 C-8.00712311 1.18977798 -7.10555481 1.1742337 -6.17666626 1.15821838 C-3.82250061 0.98709785 -2.34899576 0 0 0 Z " fill="#6A97B3" transform="translate(80,81)"/>
<path d="M0 0 C0.8353125 1.1446875 0.8353125 1.1446875 1.6875 2.3125 C4.73762478 5.85723961 7.26754552 7.74645262 11.9543457 8.43237305 C13.01741943 8.45855713 14.08049316 8.48474121 15.17578125 8.51171875 C16.91118164 8.56489258 16.91118164 8.56489258 18.68164062 8.61914062 C19.87982422 8.64169922 21.07800781 8.66425781 22.3125 8.6875 C23.53001953 8.72166016 24.74753906 8.75582031 26.00195312 8.79101562 C29.00121014 8.87334817 32.00018014 8.94254921 35 9 C34.67 9.66 34.34 10.32 34 11 C29.75005737 11.05805933 25.50021676 11.09361654 21.25 11.125 C20.0434375 11.14175781 18.836875 11.15851563 17.59375 11.17578125 C16.43359375 11.18222656 15.2734375 11.18867187 14.078125 11.1953125 C13.00981445 11.20578613 11.94150391 11.21625977 10.84082031 11.22705078 C8.02020895 11.00161519 6.39212537 10.45848994 4 9 C4 8.34 4 7.68 4 7 C3.34 7 2.68 7 2 7 C2 6.34 2 5.68 2 5 C1.34 5 0.68 5 0 5 C0 3.35 0 1.7 0 0 Z " fill="#7CC1DA" transform="translate(16,75)"/>
<path d="M0 0 C1.125 3.75 1.125 3.75 0 6 C3.465 5.505 3.465 5.505 7 5 C7 4.34 7 3.68 7 3 C7.66 3 8.32 3 9 3 C9.33 2.34 9.66 1.68 10 1 C9.91563067 3.86855713 9.41307819 5.55682315 7.4453125 7.66796875 C2.48559976 12 2.48559976 12 0 12 C-1.49498913 9.01002175 -1.11577446 6.29957225 -1 3 C-0.67 2.01 -0.34 1.02 0 0 Z " fill="#B965F1" transform="translate(36,50)"/>
<path d="M0 0 C4.23425445 1.51223373 6.05018292 4.02537288 8 8 C7.25 11.875 7.25 11.875 6 15 C3.41741077 12.41741077 3.27012534 10.27124388 2.5625 6.77734375 C2.376875 6.19082031 2.19125 5.60429688 2 5 C1.34 4.67 0.68 4.34 0 4 C0 4.66 0 5.32 0 6 C-0.66 5.67 -1.32 5.34 -2 5 C-1.34 3.35 -0.68 1.7 0 0 Z " fill="#E35F97" transform="translate(41,38)"/>
<path d="M0 0 C0.33 0 0.66 0 1 0 C1.22732116 2.80362763 1.34081872 4.46186517 -0.1875 6.875 C-2 8 -2 8 -4.5 8 C-7.74788441 6.70084623 -8.49860774 5.08180517 -10 2 C-6.66666667 2 -3.33333333 2 0 2 C0 1.34 0 0.68 0 0 Z " fill="#54D834" transform="translate(67,59)"/>
<path d="M0 0 C0.66 0 1.32 0 2 0 C3.65 3.96 5.3 7.92 7 12 C6.01 11.67 5.02 11.34 4 11 C4 10.34 4 9.68 4 9 C2.35 9 0.7 9 -1 9 C-0.67 6.03 -0.34 3.06 0 0 Z " fill="#130F0B" transform="translate(49,46)"/>
<path d="M0 0 C0.33 1.32 0.66 2.64 1 4 C-1.98241547 4.77321882 -4.97580475 5.41196203 -8 6 C-8 4.35 -8 2.7 -8 1 C-4.93251126 -0.86240388 -3.40254489 -1.2151946 0 0 Z " fill="#EA880F" transform="translate(61,43)"/>
<path d="M0 0 C1.485 0.99 1.485 0.99 3 2 C2.48041715 6.37934119 1.94324258 10.68803391 1 15 C0.34 14.67 -0.32 14.34 -1 14 C-1.02685938 11.85423363 -1.04633088 9.70837355 -1.0625 7.5625 C-1.07410156 6.36753906 -1.08570312 5.17257813 -1.09765625 3.94140625 C-1 1 -1 1 0 0 Z " fill="#DEB8EF" transform="translate(86,60)"/>
<path d="M0 0 C0.66 0 1.32 0 2 0 C2.2954439 5.02254631 1.98514628 7.89542386 -1 12 C-3.31 11.34 -5.62 10.68 -8 10 C-8.33 8.68 -8.66 7.36 -9 6 C-7.515 6.99 -7.515 6.99 -6 8 C-2.68913741 7.71725862 -2.68913741 7.71725862 0 6 C0.04080783 4.00041636 0.04254356 1.99954746 0 0 Z " fill="#02200A" transform="translate(67,58)"/>
<path d="M0 0 C2 2 2 2 2 6 C-0.31 6.33 -2.62 6.66 -5 7 C-5 4 -5 4 -3 1 C-2.01 0.67 -1.02 0.34 0 0 Z " fill="#A0EE12" transform="translate(65,55)"/>
<path d="M0 0 C1.65 0 3.3 0 5 0 C5.33 0.66 5.66 1.32 6 2 C5.01 2.33 4.02 2.66 3 3 C1.57142881 4.40105576 1.57142881 4.40105576 0.3125 6.0625 C-0.450625 7.031875 -1.21375 8.00125 -2 9 C-2.99 8.67 -3.98 8.34 -5 8 C-4.360625 7.236875 -3.72125 6.47375 -3.0625 5.6875 C-0.85767219 3.11753287 -0.85767219 3.11753287 0 0 Z " fill="#657AE6" transform="translate(46,57)"/>
<path d="M0 0 C0.66 0.99 1.32 1.98 2 3 C1.34 3 0.68 3 0 3 C0 4.32 0 5.64 0 7 C1.65 7 3.3 7 5 7 C6.4783226 9.95664519 6.06032783 12.74229737 6 16 C5.67 16 5.34 16 5 16 C4.34 14.02 3.68 12.04 3 10 C1.35 9.67 -0.3 9.34 -2 9 C-1.125 2.25 -1.125 2.25 0 0 Z " fill="#0D143D" transform="translate(48,48)"/>
<path d="M0 0 C6.6 0 13.2 0 20 0 C20 0.33 20 0.66 20 1 C14.25 2.125 14.25 2.125 12 1 C11.67 1.66 11.34 2.32 11 3 C10.01 2.67 9.02 2.34 8 2 C7.01 2.33 6.02 2.66 5 3 C2.3125 2.0625 2.3125 2.0625 0 1 C0 0.67 0 0.34 0 0 Z " fill="#98BCE6" transform="translate(51,84)"/>
<path d="M0 0 C0.33 0.99 0.66 1.98 1 3 C0.34 3 -0.32 3 -1 3 C-1 2.34 -1 1.68 -1 1 C-5.455 1.495 -5.455 1.495 -10 2 C-10.33 3.32 -10.66 4.64 -11 6 C-11.99 6 -12.98 6 -14 6 C-13.15646064 3.32879201 -12.54188875 1.45852125 -10.375 -0.375 C-6.74299513 -1.33079075 -3.69116793 -0.61519465 0 0 Z " fill="#B6192A" transform="translate(56,32)"/>
<path d="M0 0 C0.99 0.33 1.98 0.66 3 1 C3.33 2.98 3.66 4.96 4 7 C3.01 6.67 2.02 6.34 1 6 C1 5.34 1 4.68 1 4 C0.34 4 -0.32 4 -1 4 C-1.66 5.32 -2.32 6.64 -3 8 C-3.33 7.34 -3.66 6.68 -4 6 C-3.0625 3.875 -3.0625 3.875 -2 2 C-1.34 2 -0.68 2 0 2 C0 1.34 0 0.68 0 0 Z " fill="#E945C1" transform="translate(41,42)"/>
<path d="M0 0 C-0.33 0.99 -0.66 1.98 -1 3 C-8.26 3 -15.52 3 -23 3 C-23 2.67 -23 2.34 -23 2 C-22.15236084 1.96241577 -22.15236084 1.96241577 -21.28759766 1.92407227 C-18.73316258 1.80820044 -16.1791045 1.68543463 -13.625 1.5625 C-12.29082031 1.50352539 -12.29082031 1.50352539 -10.9296875 1.44335938 C-10.07890625 1.40146484 -9.228125 1.35957031 -8.3515625 1.31640625 C-7.56604004 1.27974854 -6.78051758 1.24309082 -5.97119141 1.20532227 C-3.71076818 0.96987318 -2.28693751 0 0 0 Z " fill="#8792BD" transform="translate(80,81)"/>
<path d="M0 0 C2 2 2 2 2 6 C0.02 6.99 0.02 6.99 -2 8 C-2 8.66 -2 9.32 -2 10 C-3.65 9.67 -5.3 9.34 -7 9 C-6.21625 8.2575 -5.4325 7.515 -4.625 6.75 C-2.43495469 4.45566682 -1.17268614 2.87841142 0 0 Z " fill="#C9DD1C" transform="translate(63,50)"/>
<path d="M0 0 C1.65 0 3.3 0 5 0 C4.67 1.32 4.34 2.64 4 4 C4.99 4.33 5.98 4.66 7 5 C6.67 5.99 6.34 6.98 6 8 C6 7.34 6 6.68 6 6 C5.071875 5.9071875 5.071875 5.9071875 4.125 5.8125 C2 5 2 5 0.75 2.4375 C0.5025 1.633125 0.255 0.82875 0 0 Z " fill="#F65043" transform="translate(45,40)"/>
<path d="M0 0 C0.66 0 1.32 0 2 0 C2 0.66 2 1.32 2 2 C2.99 2.33 3.98 2.66 5 3 C5 3.66 5 4.32 5 5 C3.02 5.33 1.04 5.66 -1 6 C-0.67 4.02 -0.34 2.04 0 0 Z " fill="#F64FEC" transform="translate(40,46)"/>
<path d="M0 0 C0.99 0.33 1.98 0.66 3 1 C4.1875 3.5625 4.1875 3.5625 5 6 C3.02 6 1.04 6 -1 6 C-1.33 5.34 -1.66 4.68 -2 4 C-1.34 4 -0.68 4 0 4 C0 2.68 0 1.36 0 0 Z " fill="#FB1B32" transform="translate(45,34)"/>
<path d="M0 0 C2.31 0 4.62 0 7 0 C6.67 1.32 6.34 2.64 6 4 C4.68 4 3.36 4 2 4 C2 3.34 2 2.68 2 2 C1.34 2 0.68 2 0 2 C0 1.34 0 0.68 0 0 Z " fill="#F40C08" transform="translate(46,33)"/>
<path d="M0 0 C1.9375 0.8125 1.9375 0.8125 4 2 C4.33 2.99 4.66 3.98 5 5 C3.35 4.67 1.7 4.34 0 4 C0 4.66 0 5.32 0 6 C-0.66 5.67 -1.32 5.34 -2 5 C-1.34 3.35 -0.68 1.7 0 0 Z " fill="#D9337D" transform="translate(41,38)"/>
<path d="M0 0 C0.33 0 0.66 0 1 0 C1.33 2.31 1.66 4.62 2 7 C1.34 7 0.68 7 0 7 C0 7.66 0 8.32 0 9 C-0.66 9 -1.32 9 -2 9 C-1.125 2.25 -1.125 2.25 0 0 Z " fill="#955AD1" transform="translate(34,55)"/>
<path d="M0 0 C2.475 0.495 2.475 0.495 5 1 C4.67 2.32 4.34 3.64 4 5 C2.68 4.67 1.36 4.34 0 4 C0 2.68 0 1.36 0 0 Z " fill="#F3D701" transform="translate(58,49)"/>
<path d="M0 0 C2.97 0 5.94 0 9 0 C9.33 0.99 9.66 1.98 10 3 C2.25 2.25 2.25 2.25 0 0 Z " fill="#220411" transform="translate(46,29)"/>
<path d="M0 0 C-0.33 1.32 -0.66 2.64 -1 4 C-2.65 4.33 -4.3 4.66 -6 5 C-6 4.01 -6 3.02 -6 2 C-2.25 0 -2.25 0 0 0 Z " fill="#F8A002" transform="translate(59,44)"/>
<path d="M0 0 C0 3 0 3 -1.5 4.6875 C-1.995 5.120625 -2.49 5.55375 -3 6 C-3.99 5.67 -4.98 5.34 -6 5 C-3.9927092 1.9890638 -3.16115776 1.36983503 0 0 Z " fill="#5D7AFB" transform="translate(47,60)"/>
</svg>
